<svg xmlns="http://www.w3.org/2000/svg" fill="none" viewBox="0 0 24 24">
    <g id="tempLogo">
        <path fill="currentColor" d="M3 15h6v6H3v-6ZM9 9h6v6H9V9ZM15 3h6v6h-6V3Z"/>
    </g>
    <g id="caretDown">
        <path fill="currentColor" d="M12.707 15.707a1 1 0 0 1-1.32.083l-.094-.083-6-6-.083-.094-.054-.077-.054-.096-.017-.036-.027-.067-.032-.108-.01-.053-.01-.06-.004-.057L5 9l.002-.059.005-.058.009-.06.01-.052.032-.108.027-.067.07-.132.065-.09.073-.08.094-.084.077-.054.096-.054.036-.017.067-.027.108-.032.053-.01.06-.01.057-.004L6 8h12c.852 0 1.297.986.783 1.623l-.076.084-6 6Z"/>
    </g>
</svg>
